# xmcd
#
# Track frame offsets: 
#        150
#        22176
#        42034
#        59326
#        101447
#        113836
#        144532
#        161175
#        177264
#        199116
#        215906
#        245932
#        285432
#
# Disc length: 4287 seconds
#
# Revision: 3
# Processed by: cddbd v1.5.2PL0 Copyright (c) Steve Scherf et al.
# Submitted via: ExactAudioCopy v1.0b3
#
DISCID=c710bd0d
DTITLE=Nextage - Nextage vol 1
DYEAR=2004
DGENRE=New Age
TTITLE0=Mario Rosini - Mario Rosini - Song For Daniela
TTITLE1=Marc Hirte - Marc Hirte - Spontaneous Premditation
TTITLE2=Prem Joshua - Prem Joshua - From Behind The Hills
TTITLE3=Medwyn Godhall - Medwyn Godhall - Clan
TTITLE4=Terra Incognita - Terra Incognita - Sacred Dance
TTITLE5=Peter Blake - Peter Blake - Strange Skies
TTITLE6=Alberto Grollo - Alberto Grollo - Mare Di Tetide
TTITLE7=John Polito - John Polito - Time And Space
TTITLE8=Gandalf - Gandalf - Face In The Mirror
TTITLE9=David Wright - David Wright - Lord Of Light
TTITLE10=Chuck Wilde - Chuck Wilde - Balance
TTITLE11=Jon Mark - Jon Mark - The Standing Stones Of Callanish
TTITLE12=Traccua Dati
EXTD=YEAR: 2004
EXTT0=
EXTT1=
EXTT2=
EXTT3=
EXTT4=
EXTT5=
EXTT6=
EXTT7=
EXTT8=
EXTT9=
EXTT10=
EXTT11=
EXTT12=
PLAYORDER=
